<svg id="Lag_1" data-name="Lag 1" xmlns="http://www.w3.org/2000/svg" viewBox="0 0 146.9 253.36"><title>imagechef</title><path d="M690.28,559.18a65.48,65.48,0,0,0,17.41-1.75c15.87-3.8,30.26-11.77,45.8-16.53a6.79,6.79,0,0,0,1.29-.75,12,12,0,0,0,6.35-10.62,42.89,42.89,0,0,0-1-11.9A138.84,138.84,0,0,0,748,486.54c-5.68-10.79-14.84-17.33-26.53-20.35-5.74-1.48-11.87-2.28-17,1.11s-10.73,4.4-16.58,4.21a70,70,0,0,0-17.81,1.79c-13.41,3-10.67-.16-13.08,13.21-3.36,18.67-6.21,37.42-8.4,56.26-1.06,9.14-.71,9.66,8.13,12.12A120.16,120.16,0,0,0,690.28,559.18Zm-41-156.94C674,383,697.76,384,722,402.12c-.08-11.64.42-21.94-.55-32.2-.35-3.67.55-5.67,4.44-6.94,12.59-4.11,18.74-18.07,13.79-30.43-4.84-12.1-18.06-17.47-30.12-11.9-3.06,1.41-4.16.78-5.78-1.91a26.39,26.39,0,0,0-44.42-1.43c-2.28,3.32-4.11,4.13-8,3.11-12-3.12-23.67,4.51-26.38,16.75s5.31,24.42,17.35,26.74c7,1.34,7,1.34,7,8.7C649.33,382,649.3,391.45,649.3,402.24ZM721,416.35c.22-2,.89-10-1.12-11.55-6.54-5,.17,2.73-2.75-1.75-3.87-5.93-20.73-9.84-22.18-10.25-14.89-4.22-18.52-3.78-43,12.6-3,2-.58,9.53-.2,11.88,2.83,17.74,12.78,30.31,28.27,38.77a12.8,12.8,0,0,0,10.14,1C704.74,452.75,720.76,431.81,721,416.35Zm-48.12,53.26c-3.51-2-5.14-5.17-8.76-4.86-15.43,1.29-29.24,5.51-36.42,21a220.81,220.81,0,0,0-12.35,32.62,39.29,39.29,0,0,0-1.09,11.38,14.16,14.16,0,0,0,7.85,13,69.36,69.36,0,0,0,14.23,6c8.72,2.55,8.63,2.55,9.55-6.7,2.16-21.68,5.91-43.14,9.63-64.59.56-3.25,2-5,5.34-5.42C664.61,471.54,668.26,470.57,672.92,469.61Zm30.79-10.06a106.74,106.74,0,0,1-29.85.46c-1.67-.2-4.18-2.51-5.1.41-.71,2.26,1.62,3.8,3.44,5a11.86,11.86,0,0,0,3.18,1.4c6.84,2,13.83,1.9,20.79,1.08C700.65,467.37,703.24,464.63,703.71,459.55Zm-60.38-38.47c.32,4,4.15,7.65,6.28,12.05a1.49,1.49,0,0,0,2.19.46c1-.65,1-1.63.64-2.63-1.71-4.85-3.51-9.67-3.6-14.91a2,2,0,0,0-1.64-2.17,2.61,2.61,0,0,0-2.51,1.27C643.59,416.54,643.39,418.17,643.33,421.08Z" transform="translate(-614.28 -305.87)"/><path d="M727.9,414.18a2.61,2.61,0,0,0-2.51-1.27,2,2,0,0,0-1.64,2.17c-.09,5.24-1.9,10.06-3.6,14.91-.35,1-.39,2,.64,2.63a1.49,1.49,0,0,0,2.19-.46c2.13-4.41,6-8,6.28-12.05C729.2,417.19,729,415.56,727.9,414.18Z" transform="translate(-614.28 -305.87)"/></svg>