<svg xmlns="http://www.w3.org/2000/svg" viewBox="0 0 334.39 202.26"><defs><style>.cls-1{fill:#62ba2e;}</style></defs><title>Aktiv 1</title><g id="Lag_2" data-name="Lag 2"><g id="Lag_1-2" data-name="Lag 1"><path class="cls-1" d="M62,118.94c-3.69.9-6.22,1.7-8.8,2.13C26.57,125.52,2.72,108,1.2,81-.23,55.42.35,29.74,0,4.11,0,1.43.9.1,3.74.11c11.16.06,22.33.1,33.49,0,3.6,0,4,1.94,4,4.79-.06,14.5-.12,29,0,43.49.07,7.31.42,14.62.85,21.92.42,7.1,3.65,10,10.4,9.83C58.22,80,61.89,76,62,69.57q.51-30.7.86-61.41c.09-8,0-8,8.22-8,9.33,0,18.67.16,28-.07,4-.1,5.12,1.39,5.1,5.24-.15,19.66-.1,39.32,0,59a43.87,43.87,0,0,0,.93,8.39c.87,4.32,3.27,7.09,8,7.48,5.11.42,9-1.23,10.64-6.21A25.13,25.13,0,0,0,125,66.14c.1-20,.21-40,0-60-.06-4.95,1.58-6.26,6.3-6.12,10.32.31,20.66.22,31,0,3.72-.07,4.92,1.25,4.9,4.93-.12,23,.14,46-.12,69-.26,22.71-15.15,41.77-35.9,46.66a41,41,0,0,1-20.68-.15c-2.19-.6-4.43-1-7.36-1.65,0,2.39,0,4.17,0,6,0,23.83-.11,47.66.09,71.48,0,4.59-1.27,6.13-5.93,6-9.65-.32-19.33-.32-29,0-4.71.15-6.35-1.16-6.3-6.11.24-23.49.11-47,.11-70.48C62,123.7,62,121.74,62,118.94Z"/><path class="cls-1" d="M253.55,100.84a33.25,33.25,0,0,1-.51-4c0-12.33.06-24.66-.07-37,0-3.34.94-4.67,4.51-4.81,38.88-1.54,72,26.09,76.38,64.9,5.35,47.48-30.79,77.05-62.61,81.55C239.17,206,207.89,189.93,195,165.22c-5.4-10.33-8.78-21.32-8.92-32.94-.52-42.13-.65-84.26-1.13-126.39-.05-4.76,1.57-6,6.05-5.85,10.66.28,21.34.37,32,0,5.27-.2,6.36,1.72,6.34,6.61q-.28,54.23,0,108.47a104.61,104.61,0,0,0,2.18,22.24c3.08,13.68,13.37,21.54,26.85,21.75,14.07.22,26.66-8.23,29.84-21.2,5.94-24.2-13-40.06-31.83-37.33C255.56,100.67,254.76,100.72,253.55,100.84Z"/></g></g></svg>