<svg id="Lag_1" data-name="Lag 1" xmlns="http://www.w3.org/2000/svg" viewBox="0 0 350.61 356.7"><defs><style>.cls-1,.cls-2,.cls-3{fill:#62ba2e;}.cls-2{font-size:258.14px;}.cls-2,.cls-3{font-family:Bauhaus93, Bauhaus 93;}.cls-3{font-size:289.67px;}</style></defs><title>logomb</title><path class="cls-1" d="M802,658.5a59.37,59.37,0,0,1-4.85-7.78q-2.08-3.89-3.71-7.78a108.31,108.31,0,0,1-5.17-15.56,128.44,128.44,0,0,1-3.77-31.12,126.87,126.87,0,0,1,3.72-31.12,107.3,107.3,0,0,1,5.17-15.56q1.64-3.89,3.73-7.78A59,59,0,0,1,802,534a59,59,0,0,1,4.88,7.78q2.09,3.89,3.73,7.78a107.3,107.3,0,0,1,5.17,15.56,126.87,126.87,0,0,1,3.72,31.13,128.44,128.44,0,0,1-3.77,31.13,108.31,108.31,0,0,1-5.17,15.56q-1.64,3.89-3.71,7.78A59.37,59.37,0,0,1,802,658.5Z" transform="translate(-702.95 -361.3)"/><text class="cls-2" transform="translate(0 215.16)">w</text><text class="cls-3" transform="translate(183 284.28)">b</text></svg>